<svg width="30" height="24" viewBox="0 0 30 24" fill="none" xmlns="http://www.w3.org/2000/svg">
<path d="M1.66667 15.4286H5C5.91667 15.4286 6.66667 14.6571 6.66667 13.7143V10.2857C6.66667 9.34286 5.91667 8.57143 5 8.57143H1.66667C0.75 8.57143 0 9.34286 0 10.2857V13.7143C0 14.6571 0.75 15.4286 1.66667 15.4286ZM1.66667 24H5C5.91667 24 6.66667 23.2286 6.66667 22.2857V18.8571C6.66667 17.9143 5.91667 17.1429 5 17.1429H1.66667C0.75 17.1429 0 17.9143 0 18.8571V22.2857C0 23.2286 0.75 24 1.66667 24ZM1.66667 6.85714H5C5.91667 6.85714 6.66667 6.08571 6.66667 5.14286V1.71429C6.66667 0.771429 5.91667 0 5 0H1.66667C0.75 0 0 0.771429 0 1.71429V5.14286C0 6.08571 0.75 6.85714 1.66667 6.85714ZM10 15.4286H28.3333C29.25 15.4286 30 14.6571 30 13.7143V10.2857C30 9.34286 29.25 8.57143 28.3333 8.57143H10C9.08333 8.57143 8.33333 9.34286 8.33333 10.2857V13.7143C8.33333 14.6571 9.08333 15.4286 10 15.4286ZM10 24H28.3333C29.25 24 30 23.2286 30 22.2857V18.8571C30 17.9143 29.25 17.1429 28.3333 17.1429H10C9.08333 17.1429 8.33333 17.9143 8.33333 18.8571V22.2857C8.33333 23.2286 9.08333 24 10 24ZM8.33333 1.71429V5.14286C8.33333 6.08571 9.08333 6.85714 10 6.85714H28.3333C29.25 6.85714 30 6.08571 30 5.14286V1.71429C30 0.771429 29.25 0 28.3333 0H10C9.08333 0 8.33333 0.771429 8.33333 1.71429Z" fill="#2546B4"/>
</svg>
