<svg width="163" height="47" viewBox="0 0 163 47" fill="none" xmlns="http://www.w3.org/2000/svg">
<path d="M46.692 40V27.4H51.876C52.992 27.4 53.946 27.58 54.738 27.94C55.542 28.3 56.16 28.816 56.592 29.488C57.024 30.16 57.24 30.958 57.24 31.882C57.24 32.806 57.024 33.604 56.592 34.276C56.16 34.948 55.542 35.464 54.738 35.824C53.946 36.184 52.992 36.364 51.876 36.364H47.988L49.032 35.266V40H46.692ZM49.032 35.518L47.988 34.384H51.768C52.8 34.384 53.574 34.168 54.09 33.736C54.618 33.292 54.882 32.674 54.882 31.882C54.882 31.078 54.618 30.46 54.09 30.028C53.574 29.596 52.8 29.38 51.768 29.38H47.988L49.032 28.228V35.518ZM65.6565 40.18C64.6725 40.18 63.7665 40.018 62.9385 39.694C62.1105 39.37 61.3905 38.92 60.7785 38.344C60.1665 37.756 59.6925 37.072 59.3565 36.292C59.0205 35.5 58.8525 34.636 58.8525 33.7C58.8525 32.764 59.0205 31.906 59.3565 31.126C59.6925 30.334 60.1665 29.65 60.7785 29.074C61.3905 28.486 62.1105 28.03 62.9385 27.706C63.7665 27.382 64.6665 27.22 65.6385 27.22C66.6225 27.22 67.5225 27.382 68.3385 27.706C69.1665 28.03 69.8865 28.486 70.4985 29.074C71.1105 29.65 71.5845 30.334 71.9205 31.126C72.2565 31.906 72.4245 32.764 72.4245 33.7C72.4245 34.636 72.2565 35.5 71.9205 36.292C71.5845 37.084 71.1105 37.768 70.4985 38.344C69.8865 38.92 69.1665 39.37 68.3385 39.694C67.5225 40.018 66.6285 40.18 65.6565 40.18ZM65.6385 38.128C66.2745 38.128 66.8625 38.02 67.4025 37.804C67.9425 37.588 68.4105 37.282 68.8065 36.886C69.2025 36.478 69.5085 36.01 69.7245 35.482C69.9525 34.942 70.0665 34.348 70.0665 33.7C70.0665 33.052 69.9525 32.464 69.7245 31.936C69.5085 31.396 69.2025 30.928 68.8065 30.532C68.4105 30.124 67.9425 29.812 67.4025 29.596C66.8625 29.38 66.2745 29.272 65.6385 29.272C65.0025 29.272 64.4145 29.38 63.8745 29.596C63.3465 29.812 62.8785 30.124 62.4705 30.532C62.0745 30.928 61.7625 31.396 61.5345 31.936C61.3185 32.464 61.2105 33.052 61.2105 33.7C61.2105 34.336 61.3185 34.924 61.5345 35.464C61.7625 36.004 62.0745 36.478 62.4705 36.886C62.8665 37.282 63.3345 37.588 63.8745 37.804C64.4145 38.02 65.0025 38.128 65.6385 38.128ZM74.9049 40V27.4H80.0889C81.2049 27.4 82.1589 27.58 82.9509 27.94C83.7549 28.3 84.3729 28.816 84.8049 29.488C85.2369 30.16 85.4529 30.958 85.4529 31.882C85.4529 32.806 85.2369 33.604 84.8049 34.276C84.3729 34.936 83.7549 35.446 82.9509 35.806C82.1589 36.154 81.2049 36.328 80.0889 36.328H76.2009L77.2449 35.266V40H74.9049ZM83.1489 40L79.9629 35.428H82.4649L85.6689 40H83.1489ZM77.2449 35.518L76.2009 34.402H79.9809C81.0129 34.402 81.7869 34.18 82.3029 33.736C82.8309 33.292 83.0949 32.674 83.0949 31.882C83.0949 31.078 82.8309 30.46 82.3029 30.028C81.7869 29.596 81.0129 29.38 79.9809 29.38H76.2009L77.2449 28.228V35.518ZM90.4511 40V29.38H86.2751V27.4H96.9671V29.38H92.7911V40H90.4511ZM100.865 33.196H107.147V35.176H100.865V33.196ZM101.063 40H98.7233V27.4H107.921V29.362H101.063V40ZM115.948 40.18C114.964 40.18 114.058 40.018 113.23 39.694C112.402 39.37 111.682 38.92 111.07 38.344C110.458 37.756 109.984 37.072 109.648 36.292C109.312 35.5 109.144 34.636 109.144 33.7C109.144 32.764 109.312 31.906 109.648 31.126C109.984 30.334 110.458 29.65 111.07 29.074C111.682 28.486 112.402 28.03 113.23 27.706C114.058 27.382 114.958 27.22 115.93 27.22C116.914 27.22 117.814 27.382 118.63 27.706C119.458 28.03 120.178 28.486 120.79 29.074C121.402 29.65 121.876 30.334 122.212 31.126C122.548 31.906 122.716 32.764 122.716 33.7C122.716 34.636 122.548 35.5 122.212 36.292C121.876 37.084 121.402 37.768 120.79 38.344C120.178 38.92 119.458 39.37 118.63 39.694C117.814 40.018 116.92 40.18 115.948 40.18ZM115.93 38.128C116.566 38.128 117.154 38.02 117.694 37.804C118.234 37.588 118.702 37.282 119.098 36.886C119.494 36.478 119.8 36.01 120.016 35.482C120.244 34.942 120.358 34.348 120.358 33.7C120.358 33.052 120.244 32.464 120.016 31.936C119.8 31.396 119.494 30.928 119.098 30.532C118.702 30.124 118.234 29.812 117.694 29.596C117.154 29.38 116.566 29.272 115.93 29.272C115.294 29.272 114.706 29.38 114.166 29.596C113.638 29.812 113.17 30.124 112.762 30.532C112.366 30.928 112.054 31.396 111.826 31.936C111.61 32.464 111.502 33.052 111.502 33.7C111.502 34.336 111.61 34.924 111.826 35.464C112.054 36.004 112.366 36.478 112.762 36.886C113.158 37.282 113.626 37.588 114.166 37.804C114.706 38.02 115.294 38.128 115.93 38.128ZM125.196 40V27.4H127.536V38.02H134.124V40H125.196ZM135.971 40V27.4H138.311V40H135.971ZM147.623 40.18C146.639 40.18 145.733 40.018 144.905 39.694C144.077 39.37 143.357 38.92 142.745 38.344C142.133 37.756 141.659 37.072 141.323 36.292C140.987 35.5 140.819 34.636 140.819 33.7C140.819 32.764 140.987 31.906 141.323 31.126C141.659 30.334 142.133 29.65 142.745 29.074C143.357 28.486 144.077 28.03 144.905 27.706C145.733 27.382 146.633 27.22 147.605 27.22C148.589 27.22 149.489 27.382 150.305 27.706C151.133 28.03 151.853 28.486 152.465 29.074C153.077 29.65 153.551 30.334 153.887 31.126C154.223 31.906 154.391 32.764 154.391 33.7C154.391 34.636 154.223 35.5 153.887 36.292C153.551 37.084 153.077 37.768 152.465 38.344C151.853 38.92 151.133 39.37 150.305 39.694C149.489 40.018 148.595 40.18 147.623 40.18ZM147.605 38.128C148.241 38.128 148.829 38.02 149.369 37.804C149.909 37.588 150.377 37.282 150.773 36.886C151.169 36.478 151.475 36.01 151.691 35.482C151.919 34.942 152.033 34.348 152.033 33.7C152.033 33.052 151.919 32.464 151.691 31.936C151.475 31.396 151.169 30.928 150.773 30.532C150.377 30.124 149.909 29.812 149.369 29.596C148.829 29.38 148.241 29.272 147.605 29.272C146.969 29.272 146.381 29.38 145.841 29.596C145.313 29.812 144.845 30.124 144.437 30.532C144.041 30.928 143.729 31.396 143.501 31.936C143.285 32.464 143.177 33.052 143.177 33.7C143.177 34.336 143.285 34.924 143.501 35.464C143.729 36.004 144.041 36.478 144.437 36.886C144.833 37.282 145.301 37.588 145.841 37.804C146.381 38.02 146.969 38.128 147.605 38.128Z" fill="#9D9D9D"/>
<g clip-path="url(#clip0_44_366)">
<path d="M32.9367 18.3511C31.2925 18.3511 29.9521 19.6979 29.9521 21.3499V35.6939C29.9521 37.3459 31.2925 38.6928 32.9367 38.6928C34.5809 38.6928 35.9214 37.3459 35.9214 35.6939V21.3499C35.9214 19.7045 34.5743 18.3511 32.9367 18.3511Z" stroke="#9D9D9D" stroke-width="2" stroke-miterlimit="10"/>
<path d="M12.5725 8.03468C14.3412 8.03468 15.775 6.59403 15.775 4.8169C15.775 3.03977 14.3412 1.59912 12.5725 1.59912C10.8038 1.59912 9.36993 3.03977 9.36993 4.8169C9.36993 6.59403 10.8038 8.03468 12.5725 8.03468Z" stroke="#9D9D9D" stroke-width="2" stroke-miterlimit="10"/>
<path d="M12.5857 38.5472C14.3421 38.5472 15.775 37.1009 15.775 35.3427V13.1235C15.775 11.3587 14.3355 9.91895 12.5857 9.91895C10.8292 9.91895 9.39632 11.3653 9.39632 13.1235V35.3427C9.38972 37.1075 10.8292 38.5472 12.5857 38.5472Z" stroke="#9D9D9D" stroke-width="2" stroke-miterlimit="10"/>
<path d="M1.36026 29.0664C0.541463 30.4928 1.0301 32.3372 2.44979 33.1599L11.2717 38.2818C12.6913 39.1045 14.527 38.6136 15.3458 37.1871C16.1646 35.7607 15.676 33.9163 14.2563 33.0936L5.43443 27.9717C4.01474 27.1423 2.17906 27.6399 1.36026 29.0664Z" stroke="#9D9D9D" stroke-width="2" stroke-miterlimit="10"/>
<path d="M25.3893 2.48832C24.0554 3.45034 23.7583 5.33456 24.7157 6.67475L30.6784 14.9746C31.6359 16.3148 33.5112 16.6134 34.845 15.6514C36.1789 14.6893 36.476 12.8051 35.5186 11.4649L29.5559 3.16505C28.5984 1.8315 26.7231 1.5263 25.3893 2.48832Z" stroke="#9D9D9D" stroke-width="2" stroke-miterlimit="10"/>
<path d="M40.3719 2.17633C38.9984 1.26739 37.1429 1.6522 36.2383 3.0322L30.6388 11.5842C29.7341 12.9642 30.1171 14.8285 31.4906 15.7375C32.8641 16.6464 34.7196 16.2616 35.6242 14.8816L41.2237 6.32959C42.1283 4.95623 41.7454 3.08527 40.3719 2.17633Z" stroke="#9D9D9D" stroke-width="2" stroke-miterlimit="10"/>
<path d="M22.9131 38.693C21.1566 38.693 19.7238 37.2466 19.7238 35.4885V17.2831C19.7238 15.5183 21.1633 14.0786 22.9131 14.0786C24.6695 14.0786 26.1024 15.525 26.1024 17.2831V35.4818C26.1024 37.2466 24.6695 38.693 22.9131 38.693Z" stroke="#9D9D9D" stroke-width="2" stroke-miterlimit="10"/>
</g>
<defs>
<clipPath id="clip0_44_366">
<rect width="43" height="40" fill="white"/>
</clipPath>
</defs>
</svg>
