<svg width="172" height="40" viewBox="0 0 172 40" fill="none" xmlns="http://www.w3.org/2000/svg">
<path d="M55.692 29V16.4H60.876C61.992 16.4 62.946 16.58 63.738 16.94C64.542 17.3 65.16 17.816 65.592 18.488C66.024 19.16 66.24 19.958 66.24 20.882C66.24 21.806 66.024 22.604 65.592 23.276C65.16 23.948 64.542 24.464 63.738 24.824C62.946 25.184 61.992 25.364 60.876 25.364H56.988L58.032 24.266V29H55.692ZM58.032 24.518L56.988 23.384H60.768C61.8 23.384 62.574 23.168 63.09 22.736C63.618 22.292 63.882 21.674 63.882 20.882C63.882 20.078 63.618 19.46 63.09 19.028C62.574 18.596 61.8 18.38 60.768 18.38H56.988L58.032 17.228V24.518ZM74.6565 29.18C73.6725 29.18 72.7665 29.018 71.9385 28.694C71.1105 28.37 70.3905 27.92 69.7785 27.344C69.1665 26.756 68.6925 26.072 68.3565 25.292C68.0205 24.5 67.8525 23.636 67.8525 22.7C67.8525 21.764 68.0205 20.906 68.3565 20.126C68.6925 19.334 69.1665 18.65 69.7785 18.074C70.3905 17.486 71.1105 17.03 71.9385 16.706C72.7665 16.382 73.6665 16.22 74.6385 16.22C75.6225 16.22 76.5225 16.382 77.3385 16.706C78.1665 17.03 78.8865 17.486 79.4985 18.074C80.1105 18.65 80.5845 19.334 80.9205 20.126C81.2565 20.906 81.4245 21.764 81.4245 22.7C81.4245 23.636 81.2565 24.5 80.9205 25.292C80.5845 26.084 80.1105 26.768 79.4985 27.344C78.8865 27.92 78.1665 28.37 77.3385 28.694C76.5225 29.018 75.6285 29.18 74.6565 29.18ZM74.6385 27.128C75.2745 27.128 75.8625 27.02 76.4025 26.804C76.9425 26.588 77.4105 26.282 77.8065 25.886C78.2025 25.478 78.5085 25.01 78.7245 24.482C78.9525 23.942 79.0665 23.348 79.0665 22.7C79.0665 22.052 78.9525 21.464 78.7245 20.936C78.5085 20.396 78.2025 19.928 77.8065 19.532C77.4105 19.124 76.9425 18.812 76.4025 18.596C75.8625 18.38 75.2745 18.272 74.6385 18.272C74.0025 18.272 73.4145 18.38 72.8745 18.596C72.3465 18.812 71.8785 19.124 71.4705 19.532C71.0745 19.928 70.7625 20.396 70.5345 20.936C70.3185 21.464 70.2105 22.052 70.2105 22.7C70.2105 23.336 70.3185 23.924 70.5345 24.464C70.7625 25.004 71.0745 25.478 71.4705 25.886C71.8665 26.282 72.3345 26.588 72.8745 26.804C73.4145 27.02 74.0025 27.128 74.6385 27.128ZM83.9049 29V16.4H89.0889C90.2049 16.4 91.1589 16.58 91.9509 16.94C92.7549 17.3 93.3729 17.816 93.8049 18.488C94.2369 19.16 94.4529 19.958 94.4529 20.882C94.4529 21.806 94.2369 22.604 93.8049 23.276C93.3729 23.936 92.7549 24.446 91.9509 24.806C91.1589 25.154 90.2049 25.328 89.0889 25.328H85.2009L86.2449 24.266V29H83.9049ZM92.1489 29L88.9629 24.428H91.4649L94.6689 29H92.1489ZM86.2449 24.518L85.2009 23.402H88.9809C90.0129 23.402 90.7869 23.18 91.3029 22.736C91.8309 22.292 92.0949 21.674 92.0949 20.882C92.0949 20.078 91.8309 19.46 91.3029 19.028C90.7869 18.596 90.0129 18.38 88.9809 18.38H85.2009L86.2449 17.228V24.518ZM99.4511 29V18.38H95.2751V16.4H105.967V18.38H101.791V29H99.4511ZM109.865 22.196H116.147V24.176H109.865V22.196ZM110.063 29H107.723V16.4H116.921V18.362H110.063V29ZM124.948 29.18C123.964 29.18 123.058 29.018 122.23 28.694C121.402 28.37 120.682 27.92 120.07 27.344C119.458 26.756 118.984 26.072 118.648 25.292C118.312 24.5 118.144 23.636 118.144 22.7C118.144 21.764 118.312 20.906 118.648 20.126C118.984 19.334 119.458 18.65 120.07 18.074C120.682 17.486 121.402 17.03 122.23 16.706C123.058 16.382 123.958 16.22 124.93 16.22C125.914 16.22 126.814 16.382 127.63 16.706C128.458 17.03 129.178 17.486 129.79 18.074C130.402 18.65 130.876 19.334 131.212 20.126C131.548 20.906 131.716 21.764 131.716 22.7C131.716 23.636 131.548 24.5 131.212 25.292C130.876 26.084 130.402 26.768 129.79 27.344C129.178 27.92 128.458 28.37 127.63 28.694C126.814 29.018 125.92 29.18 124.948 29.18ZM124.93 27.128C125.566 27.128 126.154 27.02 126.694 26.804C127.234 26.588 127.702 26.282 128.098 25.886C128.494 25.478 128.8 25.01 129.016 24.482C129.244 23.942 129.358 23.348 129.358 22.7C129.358 22.052 129.244 21.464 129.016 20.936C128.8 20.396 128.494 19.928 128.098 19.532C127.702 19.124 127.234 18.812 126.694 18.596C126.154 18.38 125.566 18.272 124.93 18.272C124.294 18.272 123.706 18.38 123.166 18.596C122.638 18.812 122.17 19.124 121.762 19.532C121.366 19.928 121.054 20.396 120.826 20.936C120.61 21.464 120.502 22.052 120.502 22.7C120.502 23.336 120.61 23.924 120.826 24.464C121.054 25.004 121.366 25.478 121.762 25.886C122.158 26.282 122.626 26.588 123.166 26.804C123.706 27.02 124.294 27.128 124.93 27.128ZM134.196 29V16.4H136.536V27.02H143.124V29H134.196ZM144.971 29V16.4H147.311V29H144.971ZM156.623 29.18C155.639 29.18 154.733 29.018 153.905 28.694C153.077 28.37 152.357 27.92 151.745 27.344C151.133 26.756 150.659 26.072 150.323 25.292C149.987 24.5 149.819 23.636 149.819 22.7C149.819 21.764 149.987 20.906 150.323 20.126C150.659 19.334 151.133 18.65 151.745 18.074C152.357 17.486 153.077 17.03 153.905 16.706C154.733 16.382 155.633 16.22 156.605 16.22C157.589 16.22 158.489 16.382 159.305 16.706C160.133 17.03 160.853 17.486 161.465 18.074C162.077 18.65 162.551 19.334 162.887 20.126C163.223 20.906 163.391 21.764 163.391 22.7C163.391 23.636 163.223 24.5 162.887 25.292C162.551 26.084 162.077 26.768 161.465 27.344C160.853 27.92 160.133 28.37 159.305 28.694C158.489 29.018 157.595 29.18 156.623 29.18ZM156.605 27.128C157.241 27.128 157.829 27.02 158.369 26.804C158.909 26.588 159.377 26.282 159.773 25.886C160.169 25.478 160.475 25.01 160.691 24.482C160.919 23.942 161.033 23.348 161.033 22.7C161.033 22.052 160.919 21.464 160.691 20.936C160.475 20.396 160.169 19.928 159.773 19.532C159.377 19.124 158.909 18.812 158.369 18.596C157.829 18.38 157.241 18.272 156.605 18.272C155.969 18.272 155.381 18.38 154.841 18.596C154.313 18.812 153.845 19.124 153.437 19.532C153.041 19.928 152.729 20.396 152.501 20.936C152.285 21.464 152.177 22.052 152.177 22.7C152.177 23.336 152.285 23.924 152.501 24.464C152.729 25.004 153.041 25.478 153.437 25.886C153.833 26.282 154.301 26.588 154.841 26.804C155.381 27.02 155.969 27.128 156.605 27.128Z" fill="#BBBBBB"/>
<g clip-path="url(#clip0_44_366)">
<path d="M32.9367 18.3511C31.2925 18.3511 29.9521 19.6979 29.9521 21.3499V35.6939C29.9521 37.3459 31.2925 38.6928 32.9367 38.6928C34.5809 38.6928 35.9214 37.3459 35.9214 35.6939V21.3499C35.9214 19.7045 34.5743 18.3511 32.9367 18.3511Z" stroke="#BBBBBB" stroke-width="2" stroke-miterlimit="10"/>
<path d="M12.5725 8.03468C14.3412 8.03468 15.775 6.59403 15.775 4.8169C15.775 3.03977 14.3412 1.59912 12.5725 1.59912C10.8038 1.59912 9.36993 3.03977 9.36993 4.8169C9.36993 6.59403 10.8038 8.03468 12.5725 8.03468Z" stroke="#BBBBBB" stroke-width="2" stroke-miterlimit="10"/>
<path d="M12.5857 38.5472C14.3421 38.5472 15.775 37.1009 15.775 35.3427V13.1235C15.775 11.3587 14.3355 9.91895 12.5857 9.91895C10.8292 9.91895 9.39632 11.3653 9.39632 13.1235V35.3427C9.38972 37.1075 10.8292 38.5472 12.5857 38.5472Z" stroke="#BBBBBB" stroke-width="2" stroke-miterlimit="10"/>
<path d="M1.36026 29.0664C0.541463 30.4928 1.0301 32.3372 2.44979 33.1599L11.2717 38.2818C12.6913 39.1045 14.527 38.6136 15.3458 37.1871C16.1646 35.7607 15.676 33.9163 14.2563 33.0936L5.43443 27.9717C4.01474 27.1423 2.17906 27.6399 1.36026 29.0664Z" stroke="#BBBBBB" stroke-width="2" stroke-miterlimit="10"/>
<path d="M25.3893 2.48832C24.0554 3.45034 23.7583 5.33456 24.7157 6.67475L30.6784 14.9746C31.6359 16.3148 33.5112 16.6134 34.845 15.6514C36.1789 14.6893 36.476 12.8051 35.5186 11.4649L29.5559 3.16505C28.5984 1.8315 26.7231 1.5263 25.3893 2.48832Z" stroke="#BBBBBB" stroke-width="2" stroke-miterlimit="10"/>
<path d="M40.3719 2.17633C38.9985 1.26739 37.143 1.6522 36.2383 3.0322L30.6388 11.5842C29.7342 12.9642 30.1172 14.8285 31.4906 15.7375C32.8641 16.6464 34.7196 16.2616 35.6242 14.8816L41.2237 6.32959C42.1284 4.95623 41.7454 3.08527 40.3719 2.17633Z" stroke="#BBBBBB" stroke-width="2" stroke-miterlimit="10"/>
<path d="M22.9131 38.693C21.1566 38.693 19.7238 37.2466 19.7238 35.4885V17.2831C19.7238 15.5183 21.1633 14.0786 22.9131 14.0786C24.6695 14.0786 26.1024 15.525 26.1024 17.2831V35.4818C26.1024 37.2466 24.6695 38.693 22.9131 38.693Z" stroke="#BBBBBB" stroke-width="2" stroke-miterlimit="10"/>
</g>
<defs>
<clipPath id="clip0_44_366">
<rect width="43" height="40" fill="white"/>
</clipPath>
</defs>
</svg>
