<svg width="124" height="35" viewBox="0 0 124 35" fill="none" xmlns="http://www.w3.org/2000/svg">
<path d="M13.2858 22.8518C13.2858 23.9438 13.0171 24.8971 12.4798 25.7118C11.9425 26.5265 11.1625 27.1591 10.1398 27.6098C9.13447 28.0431 7.9038 28.2598 6.4478 28.2598C5.80647 28.2598 5.1738 28.2165 4.5498 28.1298C3.94313 28.0431 3.3538 27.9218 2.7818 27.7658C2.22713 27.5925 1.69847 27.3845 1.1958 27.1418V23.4758C2.0798 23.8571 2.9898 24.2125 3.9258 24.5418C4.87913 24.8538 5.8238 25.0098 6.7598 25.0098C7.40113 25.0098 7.91247 24.9231 8.2938 24.7498C8.69247 24.5765 8.97847 24.3425 9.1518 24.0478C9.34247 23.7531 9.4378 23.4151 9.4378 23.0338C9.4378 22.5658 9.27313 22.1671 8.9438 21.8378C8.6318 21.5085 8.20713 21.2051 7.6698 20.9278C7.13247 20.6331 6.51713 20.3211 5.8238 19.9918C5.39047 19.7838 4.92247 19.5411 4.4198 19.2638C3.91713 18.9691 3.4318 18.6138 2.9638 18.1978C2.51313 17.7645 2.14047 17.2445 1.8458 16.6378C1.55113 16.0311 1.4038 15.3031 1.4038 14.4538C1.4038 13.3445 1.65513 12.3998 2.1578 11.6198C2.6778 10.8225 3.4058 10.2158 4.3418 9.79978C5.29513 9.38378 6.41313 9.17578 7.6958 9.17578C8.66647 9.17578 9.58513 9.28845 10.4518 9.51378C11.3358 9.73911 12.2545 10.0598 13.2078 10.4758L11.9338 13.5438C11.0845 13.1971 10.3218 12.9285 9.6458 12.7378C8.9698 12.5471 8.27647 12.4518 7.5658 12.4518C7.08047 12.4518 6.66447 12.5298 6.3178 12.6858C5.97113 12.8418 5.70247 13.0585 5.5118 13.3358C5.33847 13.6131 5.2518 13.9425 5.2518 14.3238C5.2518 14.7571 5.3818 15.1298 5.6418 15.4418C5.9018 15.7365 6.2918 16.0225 6.8118 16.2998C7.3318 16.5771 7.9818 16.9065 8.7618 17.2878C9.71513 17.7385 10.5211 18.2065 11.1798 18.6918C11.8558 19.1771 12.3758 19.7491 12.7398 20.4078C13.1038 21.0665 13.2858 21.8811 13.2858 22.8518ZM27.3461 27.9998H16.6601V9.43578H27.3461V12.6598H20.5861V16.7418H26.8781V19.9658H20.5861V24.7498H27.3461V27.9998ZM123.226 9.43578L118.494 27.9998H114.022L111.5 18.2498C111.448 18.0591 111.379 17.7731 111.292 17.3918C111.223 17.0105 111.136 16.5945 111.032 16.1438C110.945 15.6931 110.867 15.2685 110.798 14.8698C110.729 14.4538 110.677 14.1331 110.642 13.9078C110.625 14.1331 110.573 14.4538 110.486 14.8698C110.417 15.2685 110.339 15.6931 110.252 16.1438C110.165 16.5771 110.079 16.9931 109.992 17.3918C109.905 17.7731 109.836 18.0678 109.784 18.2758L107.288 27.9998H102.816L98.0838 9.43578H101.958L104.324 19.5758C104.393 19.8705 104.471 20.2345 104.558 20.6678C104.645 21.0838 104.731 21.5258 104.818 21.9938C104.905 22.4445 104.983 22.8865 105.052 23.3198C105.139 23.7531 105.199 24.1258 105.234 24.4378C105.269 24.1085 105.321 23.7358 105.39 23.3198C105.459 22.8865 105.537 22.4531 105.624 22.0198C105.711 21.5691 105.789 21.1531 105.858 20.7718C105.945 20.3731 106.023 20.0611 106.092 19.8358L108.796 9.43578H112.514L115.218 19.8358C115.27 20.0611 115.339 20.3731 115.426 20.7718C115.513 21.1531 115.599 21.5691 115.686 22.0198C115.773 22.4705 115.851 22.9125 115.92 23.3458C115.989 23.7618 116.041 24.1258 116.076 24.4378C116.128 24.0045 116.206 23.4931 116.31 22.9038C116.414 22.2971 116.527 21.6905 116.648 21.0838C116.787 20.4771 116.899 19.9745 116.986 19.5758L119.352 9.43578H123.226Z" fill="#FF4B77"/>
<path d="M48.057 18.6919C48.057 20.1306 47.875 21.4392 47.511 22.6179C47.1644 23.7792 46.627 24.7846 45.899 25.6339C45.1884 26.4832 44.2697 27.1332 43.143 27.5839C42.0337 28.0346 40.725 28.2599 39.217 28.2599C37.709 28.2599 36.3917 28.0346 35.265 27.5839C34.1557 27.1159 33.237 26.4659 32.509 25.6339C31.7984 24.7846 31.261 23.7706 30.897 22.5919C30.5504 21.4132 30.377 20.1046 30.377 18.6659C30.377 16.7419 30.689 15.0692 31.313 13.6479C31.9544 12.2266 32.925 11.1259 34.225 10.3459C35.5424 9.54857 37.215 9.1499 39.243 9.1499C41.2537 9.1499 42.909 9.54857 44.209 10.3459C45.509 11.1259 46.471 12.2352 47.095 13.6739C47.7364 15.0952 48.057 16.7679 48.057 18.6919ZM34.511 18.6919C34.511 19.9919 34.6757 21.1099 35.005 22.0459C35.3344 22.9819 35.8457 23.7012 36.539 24.2039C37.2324 24.7066 38.125 24.9579 39.217 24.9579C40.3437 24.9579 41.245 24.7066 41.921 24.2039C42.6144 23.7012 43.117 22.9819 43.429 22.0459C43.7584 21.1099 43.923 19.9919 43.923 18.6919C43.923 16.7332 43.559 15.1992 42.831 14.0899C42.103 12.9806 40.907 12.4259 39.243 12.4259C38.1337 12.4259 37.2324 12.6772 36.539 13.1799C35.8457 13.6826 35.3344 14.4019 35.005 15.3379C34.6757 16.2739 34.511 17.3919 34.511 18.6919ZM67.0084 21.4479C67.0084 22.7306 66.7224 23.8919 66.1504 24.9319C65.5957 25.9546 64.7464 26.7692 63.6024 27.3759C62.4757 27.9652 61.0457 28.2599 59.3124 28.2599C56.8511 28.2599 54.9791 27.6359 53.6964 26.3879C52.4137 25.1226 51.7724 23.4586 51.7724 21.3959V9.4359H55.6984V20.7979C55.6984 22.3232 56.0104 23.3979 56.6344 24.0219C57.2584 24.6459 58.1857 24.9579 59.4164 24.9579C60.2831 24.9579 60.9851 24.8106 61.5224 24.5159C62.0597 24.2212 62.4497 23.7619 62.6924 23.1379C62.9524 22.5139 63.0824 21.7252 63.0824 20.7719V9.4359H67.0084V21.4479ZM71.5547 27.9999V9.4359H75.4807V24.7499H83.0207V27.9999H71.5547ZM89.7399 25.2699C89.5839 25.8766 89.3846 26.5352 89.1419 27.2459C88.8992 27.9392 88.6392 28.6326 88.3619 29.3259C88.0846 30.0366 87.7986 30.7126 87.5039 31.3539H84.7219C84.8952 30.6606 85.0599 29.9326 85.2159 29.1699C85.3719 28.4246 85.5192 27.6879 85.6579 26.9599C85.7966 26.2319 85.9092 25.5732 85.9959 24.9839H89.5579L89.7399 25.2699Z" fill="#2F2F2F"/>
<path d="M40.5 18C40.7761 18 41 17.5523 41 17C41 16.4477 40.7761 16 40.5 16C40.2239 16 40 16.4477 40 17C40 17.5523 40.2239 18 40.5 18Z" fill="#2F2F2F"/>
<path d="M38.5 18C38.7761 18 39 17.5523 39 17C39 16.4477 38.7761 16 38.5 16C38.2239 16 38 16.4477 38 17C38 17.5523 38.2239 18 38.5 18Z" fill="#2F2F2F"/>
<path d="M41 19C41 19.5523 40.5523 20 40 20C39.4477 20 39 19.5523 39 19" stroke="#2F2F2F" stroke-linecap="round"/>
</svg>
