<svg width="46" height="48" viewBox="0 0 46 48" fill="none" xmlns="http://www.w3.org/2000/svg">
<circle cx="23" cy="25" r="23" fill="#FF4B77"/>
<path d="M24.16 27.824C24.16 29.1893 23.8293 30.352 23.168 31.312C22.5067 32.272 21.5573 33.0187 20.32 33.552C19.0827 34.064 17.6107 34.32 15.904 34.32C15.072 34.32 14.272 34.2667 13.504 34.16C12.736 34.0747 12.0213 33.9467 11.36 33.776C10.6987 33.6053 10.112 33.392 9.6 33.136V29.872C10.4533 30.256 11.456 30.608 12.608 30.928C13.76 31.2267 14.9333 31.376 16.128 31.376C17.152 31.376 18.0053 31.2373 18.688 30.96C19.3707 30.6827 19.8827 30.2987 20.224 29.808C20.5653 29.3173 20.736 28.7413 20.736 28.08C20.736 27.376 20.5547 26.7893 20.192 26.32C19.8507 25.8293 19.3067 25.3813 18.56 24.976C17.8347 24.5493 16.8533 24.1013 15.616 23.632C14.7627 23.312 13.984 22.96 13.28 22.576C12.5973 22.1707 11.9893 21.7013 11.456 21.168C10.944 20.6347 10.5493 20.016 10.272 19.312C9.99467 18.608 9.856 17.7867 9.856 16.848C9.856 15.5893 10.1653 14.512 10.784 13.616C11.424 12.72 12.2987 12.0373 13.408 11.568C14.5173 11.0773 15.808 10.832 17.28 10.832C18.5173 10.832 19.6587 10.96 20.704 11.216C21.7707 11.4507 22.784 11.7813 23.744 12.208L22.656 15.056C21.7813 14.6933 20.896 14.3947 20 14.16C19.104 13.9253 18.1653 13.808 17.184 13.808C16.3307 13.808 15.616 13.936 15.04 14.192C14.464 14.448 14.0267 14.8 13.728 15.248C13.4507 15.696 13.312 16.2187 13.312 16.816C13.312 17.52 13.472 18.1067 13.792 18.576C14.112 19.0453 14.624 19.4827 15.328 19.888C16.032 20.272 16.96 20.6987 18.112 21.168C19.392 21.6587 20.48 22.192 21.376 22.768C22.2933 23.344 22.9867 24.0373 23.456 24.848C23.9253 25.6373 24.16 26.6293 24.16 27.824Z" fill="black"/>
<mask id="path-3-outside-1_155_20" maskUnits="userSpaceOnUse" x="15" y="20" width="26" height="20" fill="black">
<rect fill="white" x="15" y="20" width="26" height="20"/>
<path d="M39.368 21.864L34.856 39H32.096L29.072 28.416C28.976 28.128 28.88 27.808 28.784 27.456C28.704 27.104 28.624 26.76 28.544 26.424C28.464 26.072 28.392 25.76 28.328 25.488C28.28 25.216 28.24 25.008 28.208 24.864C28.192 25.008 28.16 25.216 28.112 25.488C28.064 25.76 28 26.072 27.92 26.424C27.84 26.76 27.76 27.112 27.68 27.48C27.6 27.832 27.512 28.168 27.416 28.488L24.44 39H21.68L17.192 21.864H19.856L22.376 31.992C22.456 32.344 22.536 32.704 22.616 33.072C22.696 33.44 22.768 33.808 22.832 34.176C22.912 34.544 22.976 34.904 23.024 35.256C23.088 35.592 23.144 35.904 23.192 36.192C23.24 35.888 23.288 35.56 23.336 35.208C23.4 34.856 23.472 34.496 23.552 34.128C23.632 33.744 23.712 33.368 23.792 33C23.888 32.632 23.984 32.296 24.08 31.992L26.936 21.864H29.528L32.48 32.04C32.576 32.36 32.664 32.704 32.744 33.072C32.84 33.44 32.928 33.816 33.008 34.2C33.088 34.568 33.152 34.928 33.2 35.28C33.264 35.616 33.32 35.92 33.368 36.192C33.416 35.792 33.48 35.36 33.56 34.896C33.656 34.416 33.76 33.928 33.872 33.432C33.984 32.92 34.096 32.44 34.208 31.992L36.728 21.864H39.368Z"/>
</mask>
<path d="M39.368 21.864L34.856 39H32.096L29.072 28.416C28.976 28.128 28.88 27.808 28.784 27.456C28.704 27.104 28.624 26.76 28.544 26.424C28.464 26.072 28.392 25.76 28.328 25.488C28.28 25.216 28.24 25.008 28.208 24.864C28.192 25.008 28.16 25.216 28.112 25.488C28.064 25.76 28 26.072 27.92 26.424C27.84 26.76 27.76 27.112 27.68 27.48C27.6 27.832 27.512 28.168 27.416 28.488L24.44 39H21.68L17.192 21.864H19.856L22.376 31.992C22.456 32.344 22.536 32.704 22.616 33.072C22.696 33.44 22.768 33.808 22.832 34.176C22.912 34.544 22.976 34.904 23.024 35.256C23.088 35.592 23.144 35.904 23.192 36.192C23.24 35.888 23.288 35.56 23.336 35.208C23.4 34.856 23.472 34.496 23.552 34.128C23.632 33.744 23.712 33.368 23.792 33C23.888 32.632 23.984 32.296 24.08 31.992L26.936 21.864H29.528L32.48 32.04C32.576 32.36 32.664 32.704 32.744 33.072C32.84 33.44 32.928 33.816 33.008 34.2C33.088 34.568 33.152 34.928 33.2 35.28C33.264 35.616 33.32 35.92 33.368 36.192C33.416 35.792 33.48 35.36 33.56 34.896C33.656 34.416 33.76 33.928 33.872 33.432C33.984 32.92 34.096 32.44 34.208 31.992L36.728 21.864H39.368Z" fill="white"/>
<path d="M39.368 21.864L40.335 22.1186L40.6654 20.864H39.368V21.864ZM34.856 39V40H35.6268L35.823 39.2546L34.856 39ZM32.096 39L31.1345 39.2747L31.3417 40H32.096V39ZM29.072 28.416L30.0335 28.1413L30.0276 28.1204L30.0207 28.0998L29.072 28.416ZM28.784 27.456L27.8089 27.6776L27.8136 27.6985L27.8192 27.7191L28.784 27.456ZM28.544 26.424L27.5688 26.6456L27.5712 26.6556L28.544 26.424ZM28.328 25.488L27.3432 25.6618L27.3481 25.6896L27.3546 25.717L28.328 25.488ZM28.208 24.864L29.1842 24.6471L27.2141 24.7536L28.208 24.864ZM28.112 25.488L29.0968 25.6618L29.0968 25.6618L28.112 25.488ZM27.92 26.424L28.8929 26.6556L28.8951 26.6456L27.92 26.424ZM27.68 27.48L28.6552 27.7016L28.6572 27.6924L27.68 27.48ZM27.416 28.488L26.4582 28.2007L26.4559 28.2081L26.4538 28.2156L27.416 28.488ZM24.44 39V40H25.1962L25.4022 39.2724L24.44 39ZM21.68 39L20.7126 39.2534L20.9082 40H21.68V39ZM17.192 21.864V20.864H15.8964L16.2246 22.1174L17.192 21.864ZM19.856 21.864L20.8264 21.6225L20.6377 20.864H19.856V21.864ZM22.376 31.992L23.3511 31.7704L23.3489 31.7604L23.3464 31.7505L22.376 31.992ZM22.832 34.176L21.8468 34.3473L21.8504 34.368L21.8548 34.3884L22.832 34.176ZM23.024 35.256L22.0332 35.3911L22.0367 35.4172L22.0417 35.4431L23.024 35.256ZM23.192 36.192L22.2056 36.3564L24.1798 36.348L23.192 36.192ZM23.336 35.208L22.3521 35.0291L22.3482 35.0509L22.3452 35.0729L23.336 35.208ZM23.552 34.128L24.5292 34.3404L24.531 34.332L23.552 34.128ZM23.792 33L22.8244 32.7476L22.8192 32.7675L22.8148 32.7876L23.792 33ZM24.08 31.992L25.0336 32.2931L25.0383 32.2783L25.0425 32.2634L24.08 31.992ZM26.936 21.864V20.864H26.179L25.9735 21.5926L26.936 21.864ZM29.528 21.864L30.4884 21.5854L30.2791 20.864H29.528V21.864ZM32.48 32.04L31.5196 32.3186L31.5222 32.3273L32.48 32.04ZM32.744 33.072L31.7668 33.2844L31.7712 33.3045L31.7764 33.3244L32.744 33.072ZM33.008 34.2L32.029 34.404L32.0308 34.4124L33.008 34.2ZM33.2 35.28L32.2092 35.4151L32.2127 35.4412L32.2177 35.4671L33.2 35.28ZM33.368 36.192L32.3832 36.3658L34.3609 36.3111L33.368 36.192ZM33.56 34.896L32.5794 34.6999L32.5768 34.713L32.5745 34.7261L33.56 34.896ZM33.872 33.432L34.8475 33.6523L34.8489 33.6457L33.872 33.432ZM34.208 31.992L35.1781 32.2345L35.1784 32.2335L34.208 31.992ZM36.728 21.864V20.864H35.9463L35.7576 21.6225L36.728 21.864ZM38.401 21.6094L33.889 38.7454L35.823 39.2546L40.335 22.1186L38.401 21.6094ZM34.856 38H32.096V40H34.856V38ZM33.0575 38.7253L30.0335 28.1413L28.1105 28.6907L31.1345 39.2747L33.0575 38.7253ZM30.0207 28.0998C29.9316 27.8324 29.8408 27.5305 29.7488 27.1929L27.8192 27.7191C27.9192 28.0855 28.0204 28.4236 28.1233 28.7322L30.0207 28.0998ZM29.7591 27.2344C29.6784 26.8792 29.5976 26.5319 29.5168 26.1924L27.5712 26.6556C27.6504 26.9881 27.7296 27.3288 27.8089 27.6776L29.7591 27.2344ZM29.5191 26.2024C29.4387 25.8486 29.3661 25.534 29.3014 25.259L27.3546 25.717C27.4179 25.986 27.4893 26.2954 27.5689 26.6456L29.5191 26.2024ZM29.3128 25.3142C29.264 25.0379 29.221 24.8128 29.1842 24.6471L27.2318 25.0809C27.259 25.2032 27.296 25.3941 27.3432 25.6618L29.3128 25.3142ZM27.2141 24.7536C27.2017 24.8652 27.1742 25.0481 27.1272 25.3142L29.0968 25.6618C29.1458 25.3839 29.1823 25.1508 29.2019 24.9744L27.2141 24.7536ZM27.1272 25.3142C27.0827 25.5662 27.0223 25.8617 26.9449 26.2024L28.8951 26.6456C28.9777 26.2823 29.0453 25.9538 29.0968 25.6618L27.1272 25.3142ZM26.9472 26.1924C26.8655 26.5353 26.7841 26.8937 26.7028 27.2676L28.6572 27.6924C28.7359 27.3303 28.8145 26.9847 28.8928 26.6556L26.9472 26.1924ZM26.7049 27.2584C26.6295 27.59 26.5472 27.904 26.4582 28.2007L28.3738 28.7753C28.4768 28.432 28.5705 28.074 28.6551 27.7016L26.7049 27.2584ZM26.4538 28.2156L23.4778 38.7276L25.4022 39.2724L28.3782 28.7604L26.4538 28.2156ZM24.44 38H21.68V40H24.44V38ZM22.6474 38.7466L18.1594 21.6106L16.2246 22.1174L20.7126 39.2534L22.6474 38.7466ZM17.192 22.864H19.856V20.864H17.192V22.864ZM18.8856 22.1055L21.4056 32.2335L23.3464 31.7505L20.8264 21.6225L18.8856 22.1055ZM21.4009 32.2136C21.4801 32.5624 21.5595 32.9194 21.6388 33.2844L23.5932 32.8596C23.5125 32.4886 23.4319 32.1256 23.3511 31.7704L21.4009 32.2136ZM21.6388 33.2844C21.7159 33.6389 21.7852 33.9932 21.8468 34.3473L23.8172 34.0047C23.7508 33.6228 23.6761 33.2411 23.5932 32.8596L21.6388 33.2844ZM21.8548 34.3884C21.9296 34.7324 21.9889 35.0665 22.0332 35.3911L24.0148 35.1209C23.9631 34.7415 23.8944 34.3556 23.8092 33.9636L21.8548 34.3884ZM22.0417 35.4431C22.1045 35.7728 22.1591 36.0771 22.2056 36.3564L24.1784 36.0276C24.1289 35.7309 24.0715 35.4112 24.0063 35.0689L22.0417 35.4431ZM24.1798 36.348C24.229 36.0361 24.278 35.701 24.3268 35.3431L22.3452 35.0729C22.298 35.419 22.251 35.7399 22.2042 36.036L24.1798 36.348ZM24.3199 35.3869C24.3817 35.0467 24.4515 34.6979 24.5292 34.3404L22.5748 33.9156C22.4925 34.2941 22.4183 34.6653 22.3521 35.0291L24.3199 35.3869ZM24.531 34.332C24.6104 33.9507 24.6898 33.5775 24.7692 33.2124L22.8148 32.7876C22.7342 33.1585 22.6536 33.5373 22.573 33.924L24.531 34.332ZM24.7596 33.2524C24.8521 32.8978 24.9435 32.5783 25.0336 32.2931L23.1264 31.6909C23.0245 32.0137 22.9239 32.3662 22.8244 32.7476L24.7596 33.2524ZM25.0425 32.2634L27.8985 22.1354L25.9735 21.5926L23.1175 31.7206L25.0425 32.2634ZM26.936 22.864H29.528V20.864H26.936V22.864ZM28.5676 22.1426L31.5196 32.3186L33.4404 31.7614L30.4884 21.5854L28.5676 22.1426ZM31.5222 32.3273C31.6099 32.6198 31.6916 32.9385 31.7668 33.2844L33.7212 32.8596C33.6364 32.4695 33.5421 32.1002 33.4378 31.7527L31.5222 32.3273ZM31.7764 33.3244C31.8681 33.6759 31.9523 34.0357 32.029 34.404L33.987 33.996C33.9037 33.5963 33.8119 33.2041 33.7116 32.8196L31.7764 33.3244ZM32.0308 34.4124C32.1056 34.7564 32.1649 35.0905 32.2092 35.4151L34.1908 35.1449C34.1391 34.7655 34.0704 34.3796 33.9852 33.9876L32.0308 34.4124ZM32.2177 35.4671C32.281 35.7997 32.3362 36.0991 32.3832 36.3658L34.3528 36.0182C34.3038 35.7409 34.247 35.4323 34.1823 35.0929L32.2177 35.4671ZM34.3609 36.3111C34.4065 35.9307 34.4679 35.5158 34.5455 35.0659L32.5745 34.7261C32.4921 35.2042 32.4255 35.6533 32.3751 36.0729L34.3609 36.3111ZM34.5406 35.0921C34.6349 34.6205 34.7372 34.1405 34.8474 33.6523L32.8966 33.2117C32.7828 33.7155 32.6771 34.2115 32.5794 34.6999L34.5406 35.0921ZM34.8489 33.6457C34.9591 33.1421 35.0688 32.6718 35.1781 32.2345L33.2379 31.7495C33.1232 32.2082 33.0089 32.6979 32.8951 33.2183L34.8489 33.6457ZM35.1784 32.2335L37.6984 22.1055L35.7576 21.6225L33.2376 31.7505L35.1784 32.2335ZM36.728 22.864H39.368V20.864H36.728V22.864Z" fill="#FF4B77" mask="url(#path-3-outside-1_155_20)"/>
</svg>
