<svg width="29" height="29" viewBox="0 0 29 29" fill="none" xmlns="http://www.w3.org/2000/svg">
<path d="M16.0331 4.43324C16.3957 4.0708 16.8874 3.86719 17.4 3.86719C17.9127 3.86719 18.4043 4.0708 18.7669 4.43324L27.4669 13.1332C27.8293 13.4958 28.0329 13.9875 28.0329 14.5001C28.0329 15.0128 27.8293 15.5044 27.4669 15.867L18.7669 24.567C18.4022 24.9191 17.9139 25.114 17.407 25.1096C16.9001 25.1052 16.4151 24.9019 16.0567 24.5434C15.6982 24.185 15.4949 23.7001 15.4905 23.1931C15.4861 22.6862 15.681 22.1979 16.0331 21.8332L21.2667 16.4334H2.90001C2.38726 16.4334 1.89551 16.2298 1.53294 15.8672C1.17036 15.5046 0.966675 15.0129 0.966675 14.5001C0.966675 13.9874 1.17036 13.4956 1.53294 13.133C1.89551 12.7705 2.38726 12.5668 2.90001 12.5668H21.2667L16.0331 7.16697C15.6707 6.80442 15.4671 6.31276 15.4671 5.80011C15.4671 5.28746 15.6707 4.79579 16.0331 4.43324Z" fill="white"/>
</svg>
